<svg xmlns="http://www.w3.org/2000/svg" width="145" height="145" viewBox="0 0 145 145"><g transform="translate(-360.945 -237.638)"><rect width="145" height="145" rx="26" transform="translate(360.945 237.638)" fill="#00b900"/><path d="M482.646,299.748c0-23.623-23.682-42.843-52.793-42.843s-52.793,19.22-52.793,42.843c0,21.178,18.782,38.914,44.151,42.269,1.719.37,4.06,1.133,4.652,2.6a10.857,10.857,0,0,1,.17,4.774s-.62,3.724-.754,4.519c-.23,1.334-1.061,5.22,4.574,2.846s30.4-17.9,41.48-30.651h0c7.651-8.391,11.316-16.906,11.316-26.36" transform="translate(3.357 4.014)" fill="#fff"/><g transform="translate(397.735 292.345)"><path d="M412.689,282.914h-3.7a1.027,1.027,0,0,0-1.028,1.026v23a1.027,1.027,0,0,0,1.028,1.026h3.7a1.028,1.028,0,0,0,1.028-1.026v-23a1.028,1.028,0,0,0-1.028-1.026" transform="translate(-387.941 -282.913)" fill="#00b900"/><path d="M436.564,282.914h-3.7a1.027,1.027,0,0,0-1.028,1.026v13.666L421.29,283.371a1.135,1.135,0,0,0-.08-.105l-.007-.006c-.019-.023-.041-.044-.062-.064l-.019-.017a.686.686,0,0,0-.054-.046l-.027-.021-.053-.037-.031-.018c-.018-.011-.036-.022-.054-.03l-.033-.016c-.019-.008-.039-.018-.059-.025l-.034-.012c-.019-.007-.04-.013-.06-.019l-.036-.01-.059-.013-.044-.006-.054-.006c-.017,0-.035,0-.053,0h-3.739a1.028,1.028,0,0,0-1.028,1.026v23a1.028,1.028,0,0,0,1.028,1.026h3.7a1.027,1.027,0,0,0,1.028-1.026V293.281l10.555,14.255a1.039,1.039,0,0,0,.261.254l.011.007a.483.483,0,0,0,.063.039l.03.016c.016.008.031.017.048.024l.051.022.03.011.07.023.014,0a1.049,1.049,0,0,0,.263.035h3.7a1.027,1.027,0,0,0,1.028-1.026v-23a1.027,1.027,0,0,0-1.028-1.026" transform="translate(-386.327 -282.913)" fill="#00b900"/><path d="M407.213,302.21H397.151V283.941a1.027,1.027,0,0,0-1.027-1.028h-3.7a1.028,1.028,0,0,0-1.028,1.028v23h0a1.021,1.021,0,0,0,.288.711l.014.016.014.014a1.02,1.02,0,0,0,.711.286h14.794a1.027,1.027,0,0,0,1.027-1.028v-3.7a1.027,1.027,0,0,0-1.027-1.028" transform="translate(-391.392 -282.913)" fill="#00b900"/><path d="M452.619,288.674a1.027,1.027,0,0,0,1.026-1.028v-3.7a1.027,1.027,0,0,0-1.026-1.028H437.824a1.021,1.021,0,0,0-.714.29l-.011.011-.017.018a1.018,1.018,0,0,0-.285.708h0v23h0a1.018,1.018,0,0,0,.288.711l.014.016.014.013a1.021,1.021,0,0,0,.71.288h14.795a1.027,1.027,0,0,0,1.026-1.028v-3.7a1.027,1.027,0,0,0-1.026-1.028H442.557v-3.888h10.062a1.027,1.027,0,0,0,1.026-1.028v-3.7a1.027,1.027,0,0,0-1.026-1.03H442.557v-3.887Z" transform="translate(-381.933 -282.913)" fill="#00b900"/></g></g></svg>