<svg xmlns="http://www.w3.org/2000/svg" width="153.179" height="146" viewBox="0 0 153.179 146"><g transform="translate(-1550.247 -261.056)"><path d="M-4245.35-68.443h0a2.535,2.535,0,0,1-2.046-.793c-.933-1.111-.579-3.135-.388-4.222.011-.059.021-.116.03-.17.2-1.157,1.082-6.486,1.086-6.514.417-3.169.337-5.42-.246-6.881-.841-2.089-4.111-3.193-6.7-3.751a87.69,87.69,0,0,1-25.368-7.266,74.256,74.256,0,0,1-20.16-13.561,60.111,60.111,0,0,1-13.3-18.377,51.662,51.662,0,0,1-4.8-21.716c0-34.049,34.134-61.749,76.09-61.749s76.089,27.7,76.089,61.749a48.638,48.638,0,0,1-4.019,19.57,66.074,66.074,0,0,1-12.291,18.422h0a129.2,129.2,0,0,1-14.935,14.172c-5.3,4.385-11.318,8.935-17.9,13.522-12.074,8.416-22.9,14.773-26.95,16.482A11.5,11.5,0,0,1-4245.35-68.443Zm33.615-99.7a1.473,1.473,0,0,0-1.029.417l-.016.016-.024.026a1.469,1.469,0,0,0-.412,1.021v33.15a1.473,1.473,0,0,0,.414,1.026l.023.022.021.021a1.471,1.471,0,0,0,1.024.414h21.323a1.482,1.482,0,0,0,1.478-1.482v-5.338a1.481,1.481,0,0,0-1.478-1.481h-14.5v-5.6h14.5a1.482,1.482,0,0,0,1.478-1.482v-5.336a1.482,1.482,0,0,0-1.478-1.483h-14.5v-5.6h14.5a1.481,1.481,0,0,0,1.478-1.481v-5.338a1.482,1.482,0,0,0-1.478-1.482h-21.323Zm-29.915,14.942,0,0,15.21,20.543a1.531,1.531,0,0,0,.376.366l.017.01a.493.493,0,0,0,.091.055l.042.023a.625.625,0,0,0,.071.035l.032.014.008,0,.032.014.043.015.1.033.021.005a1.507,1.507,0,0,0,.38.051h5.337a1.482,1.482,0,0,0,1.482-1.479v-33.155a1.482,1.482,0,0,0-1.482-1.479h-5.337a1.482,1.482,0,0,0-1.482,1.479v19.7L-4241.9-167.49a1.652,1.652,0,0,0-.1-.134l-.013-.016-.011-.01c-.02-.022-.04-.043-.06-.063l-.028-.028-.028-.025a.881.881,0,0,0-.079-.066l-.038-.03-.038-.027-.038-.027-.046-.026-.018-.01a.534.534,0,0,0-.062-.032l-.046-.023-.007,0c-.026-.012-.052-.024-.079-.034l-.049-.017c-.029-.011-.059-.02-.088-.028l-.052-.014-.026-.006h-.006l-.053-.012-.063-.009c-.023,0-.05-.007-.078-.008a.45.45,0,0,0-.062,0h-.016l-.051,0h-5.337a1.482,1.482,0,0,0-1.482,1.479v33.155a1.482,1.482,0,0,0,1.482,1.479h5.337a1.482,1.482,0,0,0,1.482-1.479v-19.691Zm-20.31-14.942a1.482,1.482,0,0,0-1.482,1.479v33.155a1.482,1.482,0,0,0,1.482,1.479h5.338a1.482,1.482,0,0,0,1.481-1.479v-33.155a1.482,1.482,0,0,0-1.481-1.479Zm-28.848,0a1.484,1.484,0,0,0-1.482,1.482v33.15a1.474,1.474,0,0,0,.414,1.026l.021.022.021.022a1.473,1.473,0,0,0,1.024.413h21.321a1.484,1.484,0,0,0,1.481-1.482v-5.337a1.483,1.483,0,0,0-1.481-1.482h-14.5v-26.331a1.483,1.483,0,0,0-1.48-1.482Z" transform="translate(5868 475)" fill="#00b900" stroke="rgba(0,0,0,0)" stroke-width="1"/></g></svg>