<svg xmlns="http://www.w3.org/2000/svg" width="415" height="145" viewBox="0 0 415 145"><g transform="translate(-391.392 -282.913)"><path d="M435.34,282.914H413.908a5.943,5.943,0,0,0-5.951,5.936V421.97a5.943,5.943,0,0,0,5.951,5.937H435.34a5.948,5.948,0,0,0,5.951-5.937V288.851a5.947,5.947,0,0,0-5.951-5.936" transform="translate(99.268 0.006)" fill="#00b900"/><path d="M536.424,282.914H514.992a5.943,5.943,0,0,0-5.951,5.936v79.083l-61-82.377a6.6,6.6,0,0,0-.462-.608l-.042-.035c-.112-.133-.238-.252-.357-.371l-.112-.1a3.882,3.882,0,0,0-.314-.266l-.154-.119c-.1-.077-.2-.147-.308-.217l-.182-.1a3.557,3.557,0,0,0-.315-.175l-.189-.091c-.112-.049-.224-.1-.342-.147l-.2-.07c-.112-.042-.231-.077-.35-.112l-.21-.056c-.112-.028-.224-.049-.342-.077l-.252-.035c-.1-.014-.2-.028-.315-.035s-.2-.014-.308-.021l-.2-.007H421.654a5.947,5.947,0,0,0-5.951,5.936V421.97a5.947,5.947,0,0,0,5.951,5.937h21.432a5.943,5.943,0,0,0,5.951-5.937V342.908L510.118,425.4a6.013,6.013,0,0,0,1.51,1.468l.063.042a2.831,2.831,0,0,0,.364.224l.175.091c.091.049.182.1.28.14s.189.084.293.126l.175.063c.14.049.273.091.406.133l.084.021a6.074,6.074,0,0,0,1.525.2h21.432a5.943,5.943,0,0,0,5.95-5.937V288.851a5.943,5.943,0,0,0-5.95-5.936" transform="translate(145.688 0.006)" fill="#00b900"/><path d="M482.947,394.581H424.719V288.864a5.944,5.944,0,0,0-5.943-5.951H397.343a5.95,5.95,0,0,0-5.951,5.951V421.97a5.905,5.905,0,0,0,1.664,4.112l.084.091.084.084a5.9,5.9,0,0,0,4.112,1.657h85.611a5.945,5.945,0,0,0,5.944-5.951V400.531a5.945,5.945,0,0,0-5.944-5.951" transform="translate(0 0)" fill="#00b900"/><path d="M528.359,316.247A5.943,5.943,0,0,0,534.3,310.3V288.865a5.943,5.943,0,0,0-5.937-5.95H442.741a5.909,5.909,0,0,0-4.133,1.678l-.063.063-.1.105a5.89,5.89,0,0,0-1.65,4.1V421.963a5.893,5.893,0,0,0,1.664,4.112l.084.091.084.077a5.907,5.907,0,0,0,4.112,1.664h85.618a5.943,5.943,0,0,0,5.937-5.95V400.525a5.943,5.943,0,0,0-5.937-5.951H470.131v-22.5h58.228a5.943,5.943,0,0,0,5.937-5.951V344.7a5.944,5.944,0,0,0-5.937-5.957H470.131V316.247Z" transform="translate(272.096 0.006)" fill="#00b900"/></g></svg>