<svg xmlns="http://www.w3.org/2000/svg" width="125.942" height="120" viewBox="0 0 125.942 120"><g transform="translate(-358.377 -237.332)"><path d="M484.319,288.434c0-28.178-28.248-51.1-62.972-51.1s-62.97,22.924-62.97,51.1c0,25.261,22.4,46.417,52.663,50.417,2.051.442,4.842,1.352,5.548,3.1.635,1.592.416,4.086.2,5.694,0,0-.739,4.443-.9,5.39-.274,1.592-1.265,6.227,5.454,3.395s36.265-21.354,49.477-36.56h0c9.126-10.008,13.5-20.164,13.5-31.441" fill="#00b900"/><path d="M408.553,274.818h-4.417a1.226,1.226,0,0,0-1.227,1.224V303.48a1.226,1.226,0,0,0,1.227,1.224h4.417a1.226,1.226,0,0,0,1.227-1.224V276.042a1.226,1.226,0,0,0-1.227-1.224" fill="#fff"/><path d="M438.955,274.818h-4.416a1.225,1.225,0,0,0-1.227,1.224v16.3l-12.574-16.981c-.029-.043-.062-.084-.1-.124l-.008-.008c-.024-.027-.049-.051-.074-.075l-.023-.021c-.021-.019-.043-.038-.065-.055a.4.4,0,0,0-.032-.025c-.021-.015-.042-.03-.064-.043l-.037-.022c-.021-.013-.043-.026-.065-.037l-.039-.019c-.023-.01-.046-.021-.071-.03s-.025-.01-.039-.014-.048-.017-.073-.024l-.043-.011c-.023-.006-.046-.01-.07-.015l-.052-.007c-.021,0-.043-.006-.064-.008l-.064,0-.043,0H415.3a1.226,1.226,0,0,0-1.227,1.224V303.48A1.226,1.226,0,0,0,415.3,304.7h4.416a1.226,1.226,0,0,0,1.228-1.224v-16.3l12.589,17a1.221,1.221,0,0,0,.311.3l.013.01c.025.016.05.032.076.046l.034.019.059.029c.02.008.039.017.06.024l.037.014c.028.01.055.019.083.027l.018,0a1.2,1.2,0,0,0,.314.042h4.416a1.225,1.225,0,0,0,1.227-1.224V276.042a1.225,1.225,0,0,0-1.227-1.224" fill="#fff"/><path d="M397.906,297.834h-12V276.043a1.226,1.226,0,0,0-1.225-1.226h-4.418a1.227,1.227,0,0,0-1.227,1.226V303.48a1.221,1.221,0,0,0,.343.847.142.142,0,0,0,.017.019l.018.017a1.222,1.222,0,0,0,.847.342h17.647a1.226,1.226,0,0,0,1.225-1.227V299.06a1.226,1.226,0,0,0-1.225-1.226" fill="#fff"/><path d="M463.348,281.688a1.224,1.224,0,0,0,1.224-1.226v-4.417a1.226,1.226,0,0,0-1.224-1.228H445.7a1.225,1.225,0,0,0-.851.346l-.014.013-.02.022a1.22,1.22,0,0,0-.34.845V303.48a1.217,1.217,0,0,0,.343.847l.017.019.018.016a1.217,1.217,0,0,0,.847.343h17.647a1.225,1.225,0,0,0,1.224-1.227v-4.417a1.225,1.225,0,0,0-1.224-1.227h-12V293.2h12a1.225,1.225,0,0,0,1.224-1.227v-4.416a1.225,1.225,0,0,0-1.224-1.228h-12v-4.637Z" fill="#fff"/></g></svg>