<svg xmlns="http://www.w3.org/2000/svg" width="152.179" height="145" viewBox="0 0 152.179 145"><g transform="translate(-1550.747 -261.557)"><path d="M529.238,318.653c0-34.047-34.132-61.748-76.09-61.748s-76.09,27.7-76.09,61.748c0,30.524,27.071,56.086,63.634,60.921,2.478.533,5.852,1.634,6.7,3.751.766,1.923.5,4.937.246,6.881,0,0-.893,5.367-1.087,6.513-.331,1.923-1.529,7.523,6.592,4.1s43.819-25.8,59.784-44.176h0c11.027-12.093,16.31-24.366,16.31-37.992" transform="translate(1173.688 4.652)" fill="#00b900"/><g transform="translate(1575.709 306.851)"><path d="M414.777,282.914h-5.338a1.48,1.48,0,0,0-1.482,1.479v33.155a1.48,1.48,0,0,0,1.482,1.479h5.338a1.481,1.481,0,0,0,1.482-1.479V284.393a1.481,1.481,0,0,0-1.482-1.479" transform="translate(-379.108 -282.912)" fill="#fff"/><path d="M445.769,282.914h-5.338a1.48,1.48,0,0,0-1.482,1.479v19.7l-15.193-20.517a1.623,1.623,0,0,0-.115-.152l-.01-.009c-.028-.033-.059-.063-.089-.092l-.028-.024a.983.983,0,0,0-.078-.066l-.038-.03-.077-.054-.045-.026a.89.89,0,0,0-.078-.044l-.047-.023c-.028-.012-.056-.026-.085-.037l-.049-.017c-.028-.01-.057-.019-.087-.028l-.052-.014-.085-.019-.063-.009c-.024,0-.051-.007-.078-.009s-.05,0-.077-.005l-.051,0h-5.338a1.481,1.481,0,0,0-1.482,1.479v33.155a1.481,1.481,0,0,0,1.482,1.479h5.338A1.48,1.48,0,0,0,424,317.548V297.856L439.217,318.4a1.5,1.5,0,0,0,.376.366l.016.01a.692.692,0,0,0,.09.056l.044.023c.023.012.045.024.07.035l.073.031.044.016.1.033.021.005a1.511,1.511,0,0,0,.38.051h5.338a1.48,1.48,0,0,0,1.482-1.479V284.393a1.48,1.48,0,0,0-1.482-1.479" transform="translate(-373.364 -282.912)" fill="#fff"/><path d="M414.194,310.725h-14.5V284.4a1.481,1.481,0,0,0-1.48-1.482h-5.338a1.482,1.482,0,0,0-1.482,1.482v33.152a1.471,1.471,0,0,0,.414,1.024l.021.023.021.021a1.47,1.47,0,0,0,1.024.413h21.322a1.481,1.481,0,0,0,1.48-1.482v-5.338a1.481,1.481,0,0,0-1.48-1.482" transform="translate(-391.392 -282.913)" fill="#fff"/><path d="M459.6,291.216a1.48,1.48,0,0,0,1.479-1.482V284.4a1.48,1.48,0,0,0-1.479-1.482H438.277a1.472,1.472,0,0,0-1.029.418l-.016.016-.024.026a1.467,1.467,0,0,0-.411,1.021v33.152a1.468,1.468,0,0,0,.415,1.024l.021.023.021.019a1.471,1.471,0,0,0,1.024.415H459.6a1.48,1.48,0,0,0,1.479-1.482v-5.338a1.48,1.48,0,0,0-1.479-1.482H445.1v-5.6h14.5a1.48,1.48,0,0,0,1.479-1.482V298.3a1.481,1.481,0,0,0-1.479-1.484H445.1v-5.6Z" transform="translate(-357.722 -282.912)" fill="#fff"/></g></g></svg>