<svg xmlns="http://www.w3.org/2000/svg" width="153.179" height="146" viewBox="0 0 153.179 146"><g transform="translate(-1550.247 -261.057)"><path d="M-4645.351-68.443h0a2.534,2.534,0,0,1-2.047-.793c-.933-1.112-.578-3.137-.387-4.225l.029-.167c.2-1.172,1.084-6.5,1.087-6.514.417-3.171.336-5.422-.247-6.881-.841-2.09-4.11-3.194-6.7-3.752a87.682,87.682,0,0,1-25.368-7.266,74.252,74.252,0,0,1-20.16-13.561,60.118,60.118,0,0,1-13.305-18.378,51.674,51.674,0,0,1-4.8-21.717c0-34.048,34.134-61.747,76.09-61.747s76.089,27.7,76.089,61.747a48.631,48.631,0,0,1-4.019,19.571,66.054,66.054,0,0,1-12.29,18.421,128.789,128.789,0,0,1-14.931,14.173c-5.3,4.386-11.318,8.935-17.9,13.522-12.075,8.417-22.9,14.774-26.95,16.481A11.5,11.5,0,0,1-4645.351-68.443Zm33.616-99.7a1.477,1.477,0,0,0-1.03.418l-.016.017-.023.026a1.457,1.457,0,0,0-.413,1.021v33.15a1.473,1.473,0,0,0,.415,1.026l.021.023.021.019a1.468,1.468,0,0,0,1.024.414h21.323a1.482,1.482,0,0,0,1.479-1.482v-5.338a1.481,1.481,0,0,0-1.479-1.481h-14.5v-5.6h14.5a1.482,1.482,0,0,0,1.479-1.482v-5.336a1.483,1.483,0,0,0-1.479-1.485h-14.5v-5.6h14.5a1.482,1.482,0,0,0,1.479-1.482v-5.337a1.483,1.483,0,0,0-1.479-1.483h-21.323Zm-29.916,14.943,0,0,15.211,20.543a1.514,1.514,0,0,0,.375.366l.017.011a.673.673,0,0,0,.09.056l.044.022.013.007a.5.5,0,0,0,.057.027l.03.013.043.019.042.015.028.009.074.024.021.006a1.513,1.513,0,0,0,.378.05h5.338a1.482,1.482,0,0,0,1.481-1.479v-33.156a1.482,1.482,0,0,0-1.481-1.479h-5.338a1.482,1.482,0,0,0-1.482,1.479v19.7L-4641.9-167.49a1.41,1.41,0,0,0-.1-.133l-.015-.019-.011-.008c-.021-.026-.045-.049-.068-.072l-.008-.008-.013-.012-.027-.024a.938.938,0,0,0-.08-.066l-.038-.031-.056-.039-.021-.015-.045-.026-.023-.013a.6.6,0,0,0-.056-.03l-.046-.022-.022-.01-.008,0c-.018-.008-.037-.017-.056-.023l-.047-.017c-.026-.01-.056-.02-.087-.028l-.052-.014-.016,0-.008,0-.061-.014-.063-.009a.783.783,0,0,0-.078-.007.411.411,0,0,0-.062-.005h-.016l-.051,0h-5.337a1.482,1.482,0,0,0-1.482,1.479v33.156a1.482,1.482,0,0,0,1.482,1.479h5.337a1.482,1.482,0,0,0,1.482-1.479v-19.691Zm-20.309-14.943a1.482,1.482,0,0,0-1.482,1.479v33.156a1.482,1.482,0,0,0,1.482,1.479h5.338a1.482,1.482,0,0,0,1.481-1.479v-33.156a1.482,1.482,0,0,0-1.481-1.479Zm-28.849,0a1.484,1.484,0,0,0-1.482,1.482v33.15a1.477,1.477,0,0,0,.415,1.026l.021.023.021.02a1.462,1.462,0,0,0,1.023.413h21.322a1.483,1.483,0,0,0,1.481-1.482v-5.337a1.483,1.483,0,0,0-1.481-1.482h-14.5v-26.331a1.483,1.483,0,0,0-1.48-1.482Z" transform="translate(6268 475)" fill="#fff" stroke="rgba(0,0,0,0)" stroke-width="1"/></g></svg>