<svg xmlns="http://www.w3.org/2000/svg" viewBox="0 0 573.99 573.99"><defs><style>.cls-1{fill:#3ace01}</style></defs><g id="Layer_2" data-name="Layer 2"><g id="Layer_1-2" data-name="Layer 1"><path class="cls-1" d="M117.48 0h339C521.12 0 574 52.86 574 117.48v339C574 521.12 521.12 574 456.51 574h-339C52.86 574 0 521.13 0 456.51v-339C0 52.86 52.86 0 117.48 0z"/><path d="M286.44 95.08c116.3 0 210.58 75.5 210.58 168.63 0 32.53-11.51 62.9-31.44 88.66a42.88 42.88 0 0 1-3.9 4.87l-.12.14a183.1 183.1 0 0 1-22.9 22.85c-58.24 53.82-154.09 117.9-166.74 108-11-8.6 18.12-50.63-15.47-57.63-2.34-.27-4.68-.56-7-.88-98.65-14-173.56-83-173.56-166 0-93.13 94.28-168.63 210.59-168.63z" fill="#fff"/><path class="cls-1" d="M164.26 317.49h42.47a11 11 0 0 0 11-11v-.92a11 11 0 0 0-11-11h-30.58v-69.52a11 11 0 0 0-11-11h-.91a11 11 0 0 0-11 11v81.46a11 11 0 0 0 11.02 10.98zm263.17-51.06v-.91a11 11 0 0 0-11-11h-30.55v-17.37h30.57a11 11 0 0 0 11-11v-.91a11 11 0 0 0-11-11H374a11 11 0 0 0-11 11v81.46a11 11 0 0 0 11 11h42.47a11 11 0 0 0 11-11v-.91a11 11 0 0 0-11-11h-30.59v-17.37h30.57a11 11 0 0 0 11-11zm-81.68 47.79a10.92 10.92 0 0 0 3.17-7.7v-81.46a11 11 0 0 0-11-11H337a11 11 0 0 0-11 11v47.81l-39.7-53.24a11 11 0 0 0-9.53-5.56h-.92a11 11 0 0 0-11 11v81.45a11 11 0 0 0 11 11h.92a11 11 0 0 0 11-11V257.8l40 54.61a12.45 12.45 0 0 0 .81 1.1 9.25 9.25 0 0 0 4.27 3.16 11 11 0 0 0 4.17.82h.98a10.92 10.92 0 0 0 5.13-1.28 7.69 7.69 0 0 0 2.62-1.99zm-108.19 3.27h.91a11 11 0 0 0 11-11v-81.44a11 11 0 0 0-11-11h-.91a11 11 0 0 0-11 11v81.46a11 11 0 0 0 11 11z"/></g></g></svg>