<svg xmlns="http://www.w3.org/2000/svg" xmlns:xlink="http://www.w3.org/1999/xlink" width="1024" height="1024" viewBox="0 0 1024 1024"><defs><clipPath id="b"><rect width="1024" height="1024"/></clipPath></defs><g id="a" clip-path="url(#b)"><path d="M700.86,208.086c282.77,0,512,183.1,512,408.96,0,78.893-27.987,152.553-76.437,215.025a105.526,105.526,0,0,1-9.477,11.826l-.3.323a443.141,443.141,0,0,1-55.68,55.414c-141.587,130.539-374.636,285.961-405.4,261.98-26.737-20.84,44.041-122.788-37.618-139.753-5.7-.65-11.379-1.353-17.012-2.149l-.1-.007v-.007C370.994,985.713,188.86,818.371,188.86,617.046c-.007-225.861,229.227-408.96,512-408.96Z" transform="translate(-188.86 -162.995)" fill="#fff"/><path d="M292.916,577.9h103a26.714,26.714,0,0,0,26.634-26.639v-2.221a26.712,26.712,0,0,0-26.634-26.637H321.771V353.71a26.708,26.708,0,0,0-26.634-26.634h-2.222a26.71,26.71,0,0,0-26.637,26.634V551.261A26.716,26.716,0,0,0,292.916,577.9ZM931.178,454.074v-2.222a26.716,26.716,0,0,0-26.639-26.637H830.4V383.043h74.142a26.716,26.716,0,0,0,26.639-26.636v-2.222a26.714,26.714,0,0,0-26.639-26.636h-103A26.712,26.712,0,0,0,774.9,354.185V551.737a26.716,26.716,0,0,0,26.636,26.639h103a26.718,26.718,0,0,0,26.639-26.639v-2.224a26.714,26.714,0,0,0-26.639-26.634H830.4V480.7h74.142a26.706,26.706,0,0,0,26.639-26.629ZM733.091,569.962l.007-.012a26.568,26.568,0,0,0,7.7-18.682V353.717a26.713,26.713,0,0,0-26.641-26.634h-2.222A26.71,26.71,0,0,0,685.3,353.717V469.683L589.029,340.551A26.689,26.689,0,0,0,565.9,327.083H563.68a26.714,26.714,0,0,0-26.639,26.634V551.269a26.715,26.715,0,0,0,26.639,26.639H565.9a26.714,26.714,0,0,0,26.634-26.639V433.132L689.5,565.575a27.376,27.376,0,0,0,1.952,2.67l0,.007a22.361,22.361,0,0,0,10.37,7.644,26.359,26.359,0,0,0,10.106,2.006h2.222a26.376,26.376,0,0,0,12.446-3.109A18.769,18.769,0,0,0,733.091,569.962Zm-262.4,7.94h2.222a26.714,26.714,0,0,0,26.634-26.639V353.715a26.712,26.712,0,0,0-26.634-26.637h-2.222a26.714,26.714,0,0,0-26.639,26.637V551.264A26.716,26.716,0,0,0,470.689,577.9Z" transform="translate(-77.206 5.197)" fill="#3ace01"/></g></svg>