<svg xmlns="http://www.w3.org/2000/svg" xmlns:xlink="http://www.w3.org/1999/xlink" width="1024" height="1024" viewBox="0 0 1024 1024"><defs><clipPath id="b"><rect width="1024" height="1024"/></clipPath></defs><g id="a" clip-path="url(#b)"><g transform="translate(-113.006 -113.006)"><path d="M322.583,113.006H927.429c115.267,0,209.577,94.31,209.577,209.577V927.429c0,115.265-94.31,209.577-209.577,209.577H322.583c-115.267,0-209.577-94.308-209.577-209.577V322.583C113.006,207.316,207.316,113.006,322.583,113.006Z" transform="translate(0)" fill="#3ace01"/><path d="M564.793,208.086c207.622,0,375.933,134.439,375.933,300.277,0,57.927-20.549,112.011-56.123,157.881a77.477,77.477,0,0,1-6.959,8.683l-.221.237a325.382,325.382,0,0,1-40.883,40.688C732.581,811.7,561.465,925.816,538.879,908.208c-19.632-15.3,32.337-90.156-27.621-102.612-4.183-.477-8.355-.994-12.491-1.578l-.077-.005v-.005C322.591,779.054,188.86,656.184,188.86,508.363c-.005-165.837,168.309-300.277,375.933-300.277Z" transform="translate(59.221 76.116)" fill="#fff"/><path d="M285.837,511.244h75.629a19.614,19.614,0,0,0,19.556-19.559v-1.631A19.613,19.613,0,0,0,361.466,470.5H307.024V346.632a19.61,19.61,0,0,0-19.556-19.556h-1.631a19.612,19.612,0,0,0-19.558,19.556V491.683A19.616,19.616,0,0,0,285.837,511.244Zm468.64-90.92v-1.631a19.616,19.616,0,0,0-19.559-19.558H680.479V368.17h54.439a19.616,19.616,0,0,0,19.559-19.558v-1.631a19.615,19.615,0,0,0-19.559-19.558H659.289a19.613,19.613,0,0,0-19.558,19.558V492.032a19.616,19.616,0,0,0,19.558,19.56h75.629a19.617,19.617,0,0,0,19.559-19.56V490.4a19.614,19.614,0,0,0-19.559-19.556H680.479V439.876h54.439a19.609,19.609,0,0,0,19.559-19.552Zm-145.444,85.09.005-.009a19.507,19.507,0,0,0,5.656-13.717V346.637a19.614,19.614,0,0,0-19.561-19.556H593.5a19.611,19.611,0,0,0-19.556,19.556v85.147L503.256,336.97a19.6,19.6,0,0,0-16.981-9.888h-1.631a19.614,19.614,0,0,0-19.56,19.556V491.688a19.615,19.615,0,0,0,19.56,19.56h1.631a19.614,19.614,0,0,0,19.556-19.56V404.947l71.2,97.245a20.089,20.089,0,0,0,1.434,1.961l0,.005a16.418,16.418,0,0,0,7.614,5.613,19.353,19.353,0,0,0,7.42,1.473h1.631a19.366,19.366,0,0,0,9.139-2.283A13.781,13.781,0,0,0,609.033,505.414Zm-192.667,5.83H418a19.614,19.614,0,0,0,19.556-19.559V346.635A19.613,19.613,0,0,0,418,327.078h-1.631a19.615,19.615,0,0,0-19.559,19.558V491.684a19.616,19.616,0,0,0,19.559,19.559Z" transform="translate(120.628 167.988)" fill="#3ace01"/></g></g></svg>