<svg xmlns="http://www.w3.org/2000/svg" xmlns:xlink="http://www.w3.org/1999/xlink" width="1024" height="1024" viewBox="0 0 1024 1024"><defs><clipPath id="b"><rect width="1024" height="1024"/></clipPath></defs><g id="a" clip-path="url(#b)"><g transform="translate(-113.006 -113.006)"><path d="M-1621.966-106.851h-.008c-4.031,0-7.139-.829-9.237-2.464-4.585-3.574-6.615-9.672-6.389-19.193.2-8.521,2.19-18.827,4.295-29.737,3.452-17.894,7.364-38.172,3.985-54.944-3.879-19.253-16.779-30.9-39.436-35.607-6.285-.718-11.839-1.42-16.979-2.146l-.1-.006h0v-.007a613.192,613.192,0,0,1-86.823-18.765A576.454,576.454,0,0,1-1852.63-299.8a531.063,531.063,0,0,1-71.659-40.234,478.978,478.978,0,0,1-61.893-49.225,425.617,425.617,0,0,1-50.673-57.054,378.178,378.178,0,0,1-38-63.721,344.517,344.517,0,0,1-23.866-69.225,331.612,331.612,0,0,1-8.278-73.567,332.082,332.082,0,0,1,2.637-41.732,333.339,333.339,0,0,1,7.743-40.527,349.266,349.266,0,0,1,29.774-76.617,391.379,391.379,0,0,1,47.115-69.333,447.791,447.791,0,0,1,62.4-60.408,507.789,507.789,0,0,1,75.628-49.841,562.073,562.073,0,0,1,86.8-37.633,605.925,605.925,0,0,1,95.923-23.784,640.409,640.409,0,0,1,102.987-8.292A640.394,640.394,0,0,1-1493-1052.7a605.91,605.91,0,0,1,95.921,23.784,562.062,562.062,0,0,1,86.8,37.633,507.793,507.793,0,0,1,75.628,49.841,447.809,447.809,0,0,1,62.4,60.408,391.37,391.37,0,0,1,47.114,69.333,349.286,349.286,0,0,1,29.776,76.617,333.3,333.3,0,0,1,7.744,40.527,332.09,332.09,0,0,1,2.638,41.732,332.634,332.634,0,0,1-20.011,113.451c-12.861,35.557-31.8,69.591-56.278,101.158a105.873,105.873,0,0,1-9.459,11.8l-.3.322a443.491,443.491,0,0,1-55.572,55.308c-16.084,14.829-33.763,30.353-52.544,46.142-18.149,15.256-37.389,30.811-57.186,46.233-38.6,30.067-79.134,59.475-117.228,85.043-38.56,25.881-74.036,47.43-102.591,62.318a354.741,354.741,0,0,1-38.889,17.827C-1606.394-109-1615.455-106.852-1621.966-106.851Zm237.9-667.047a26.615,26.615,0,0,0-26.584,26.585v197.168a26.616,26.616,0,0,0,26.584,26.588h102.8a26.618,26.618,0,0,0,26.588-26.588v-2.219a26.615,26.615,0,0,0-26.588-26.583h-74V-621.04h74.012a26.605,26.605,0,0,0,26.574-26.577v-2.218a26.616,26.616,0,0,0-26.588-26.585h-74v-42.09h74a26.616,26.616,0,0,0,26.588-26.585v-2.217a26.616,26.616,0,0,0-26.588-26.585Zm-237.395-.465a26.615,26.615,0,0,0-26.588,26.583v197.167a26.618,26.618,0,0,0,26.588,26.588h2.217a26.615,26.615,0,0,0,26.583-26.588V-668.518l96.781,132.186a27.1,27.1,0,0,0,1.948,2.665v.007a22.187,22.187,0,0,0,10.351,7.63,26.235,26.235,0,0,0,10.087,2h2.246a26.431,26.431,0,0,0,12.393-3.1,18.585,18.585,0,0,0,6.475-4.823l.007-.012a26.38,26.38,0,0,0,5.686-8.563,26.4,26.4,0,0,0,2-10.083V-747.779a26.616,26.616,0,0,0-26.59-26.583h-2.217a26.613,26.613,0,0,0-26.583,26.583v115.741l-96.089-128.882a26.7,26.7,0,0,0-23.083-13.441Zm-92.811-.005a26.617,26.617,0,0,0-26.588,26.585v197.165a26.618,26.618,0,0,0,26.588,26.588h2.218a26.615,26.615,0,0,0,26.582-26.588V-747.782a26.614,26.614,0,0,0-26.582-26.585Zm-177.428,0a26.614,26.614,0,0,0-26.585,26.583v197.168a26.618,26.618,0,0,0,26.585,26.59h102.8a26.615,26.615,0,0,0,26.583-26.588v-2.217a26.614,26.614,0,0,0-26.583-26.585h-74V-747.787a26.613,26.613,0,0,0-26.583-26.583Z" transform="translate(2220 1219.092)" fill="#fff"/></g></g></svg>